<svg xmlns="http://www.w3.org/2000/svg" style="display:none">
  
  <symbol id="i-youtube" viewBox="0 0 24 24" fill="currentColor">
    <path d="M23.498 6.186a3.016 3.016 0 0 0-2.122-2.136C19.505 3.545 12 3.545 12 3.545s-7.505 0-9.377.505A3.017 3.017 0 0 0 .502 6.186C0 8.07 0 12 0 12s0 3.93.502 5.814a3.016 3.016 0 0 0 2.122 2.136c1.871.505 9.376.505 9.376.505s7.505 0 9.377-.505a3.015 3.015 0 0 0 2.122-2.136C24 15.93 24 12 24 12s0-3.93-.502-5.814zM9.545 15.568V8.432L15.818 12l-6.273 3.568z"/>
  </symbol>

  <symbol id="i-pinterest" viewBox="0 0 384 512" fill="currentColor">
    <path d="M204 6.5C101.4 6.5 0 74.9 0 185.6 0 256 39.6 296 63.6 296c9.9 0 15.6-27.6 15.6-35.4 0-9.3-23.7-29.1-23.7-67.8 0-80.4 61.2-137.4 140.4-137.4 68.1 0 118.5 38.7 118.5 109.8 0 53.1-21.3 152.7-90.3 152.7-24.9 0-46.2-18-46.2-43.8 0-37.8 26.4-74.4 26.4-113.4 0-66.2-93.9-54.2-93.9 25.8 0 16.8 2.1 35.4 9.6 50.7-13.8 59.4-42 147.9-42 209.1 0 18.9 2.7 37.5 4.5 56.4 3.4 3.8 1.7 3.4 6.9 1.5 50.4-69 48.6-82.5 71.4-172.8 12.3 23.4 44.1 36 69.3 36 106.2 0 153.9-103.5 153.9-196.8C384 71.3 298.2 6.5 204 6.5z"></path>
  </symbol>

  <symbol id="i-x" viewBox="0 0 24 24" fill="currentColor">
    <path d="M18.901 1.153h3.68l-8.04 9.19L24 22.846h-7.406l-5.8-7.584-6.638 7.584H.474l8.6-9.83L0 1.154h7.594l5.243 6.932ZM17.61 20.644h2.039L6.486 3.24H4.298Z"/>
  </symbol>

  <symbol id="i-facebook" viewBox="0 0 24 24" fill="currentColor">
    <path d="M18 2h-3a5 5 0 0 0-5 5v3H7v4h3v8h4v-8h3l1-4h-4V7a1 1 0 0 1 1-1h3z"></path>
  </symbol>

  <symbol id="i-instagram" viewBox="0 0 24 24" fill="currentColor">
    <path d="M12 2.163c3.204 0 3.584.012 4.85.07 3.252.148 4.771 1.691 4.919 4.919.058 1.265.069 1.645.069 4.849 0 3.205-.012 3.584-.069 4.849-.149 3.225-1.664 4.771-4.919 4.919-1.266.058-1.644.07-4.85.07-3.204 0-3.584-.012-4.849-.07-3.26-.149-4.771-1.699-4.919-4.92-.058-1.265-.07-1.644-.07-4.849 0-3.204.013-3.583.07-4.849.149-3.227 1.664-4.771 4.919-4.919 1.266-.057 1.645-.069 4.849-.069zm0-2.163c-3.259 0-3.667.014-4.947.072-4.358.2-6.78 2.618-6.98 6.98-.059 1.281-.073 1.689-.073 4.948 0 3.259.014 3.668.072 4.948.2 4.358 2.618 6.78 6.98 6.98 1.281.058 1.689.072 4.948.072 3.259 0 3.668-.014 4.948-.072 4.354-.2 6.782-2.618 6.979-6.98.059-1.28.073-1.689.073-4.948 0-3.259-.014-3.667-.072-4.947-.196-4.354-2.617-6.78-6.979-6.98-1.281-.059-1.69-.073-4.949-.073zm0 5.838c-3.403 0-6.162 2.759-6.162 6.162s2.759 6.163 6.162 6.163 6.162-2.759 6.162-6.163c0-3.403-2.759-6.162-6.162-6.162zm0 10.162c-2.209 0-4-1.79-4-4 0-2.209 1.791-4 4-4s4 1.791 4 4c0 2.21-1.791 4-4 4zm6.406-11.845c-.796 0-1.441.645-1.441 1.44s.645 1.44 1.441 1.44c.795 0 1.439-.645 1.439-1.44s-.644-1.44-1.439-1.44z"/>
  </symbol>

  <symbol id="i-whatsapp" viewBox="0 0 512 512" fill="currentColor">
    <path d="M380.9 97.1C339 55.1 283.2 32 223.9 32c-122.4 0-222 99.6-222 222 0 39.1 10.2 77.3 29.6 111L0 480l117.7-30.9c32.4 17.7 68.9 27 106.1 27h.1c122.3 0 224.1-99.6 224.1-222 0-59.3-25.2-115-67.1-157zm-157 341.6c-33.2 0-65.7-8.9-94-25.7l-6.7-4-69.8 18.3L72 359.2l-4.4-7c-18.5-29.4-28.2-63.3-28.2-98.2 0-101.7 82.8-184.5 184.6-184.5 49.3 0 95.6 19.2 130.4 54.1 34.8 34.9 56.2 81.2 56.1 130.5 0 101.8-84.9 184.6-186.6 184.6zm101.2-138.2c-5.5-2.8-32.8-16.2-37.9-18-5.1-1.9-8.8-2.8-12.5 2.8-3.7 5.6-14.3 18-17.6 21.8-3.2 3.7-6.5 4.2-12 1.4-32.6-16.3-54-29.1-75.5-66-5.7-9.8 5.7-9.1 16.3-30.3 1.8-3.7.9-6.9-.5-9.7-1.4-2.8-12.5-30.1-17.1-41.2-4.5-10.8-9.1-9.3-12.5-9.5-3.2-.2-6.9-.2-10.6-.2-3.7 0-9.7 1.4-14.8 6.9-5.1 5.6-19.4 19-19.4 46.3 0 27.3 19.9 53.7 22.6 57.4 2.8 3.7 39.1 59.7 94.8 83.8 35.2 15.2 49 16.5 66.6 13.9 10.7-1.6 32.8-13.4 37.4-26.4 4.6-13 4.6-24.1 3.2-26.4-1.3-2.5-5-3.9-10.5-6.6z"></path>
  </symbol>

  <symbol id="i-telegram" viewBox="0 0 24 24" fill="currentColor">
    <path d="M12 0c-6.627 0-12 5.373-12 12s5.373 12 12 12 12-5.373 12-12-5.373-12-12-12zm5.891 8.145l-1.456 6.868c-.11.491-.4.613-.812.379l-2.222-1.637-1.072 1.032c-.118.118-.218.218-.444.218l.159-2.259 4.112-3.713c.179-.159-.039-.248-.278-.089l-5.082 3.2-2.189-.684c-.476-.149-.485-.476.099-.705l8.544-3.293c.395-.145.741.091.593.68z"/>
  </symbol>

  <symbol id="i-reddit" viewBox="0 0 16 16" fill="currentColor">
    <path d="M16 8A8 8 0 1 1 0 8a8 8 0 0 1 16 0m-3.828-1.165c-.315 0-.602.124-.812.325-.801-.573-1.9-.945-3.121-.993l.534-2.501 1.738.372a.83.83 0 1 0 .83-.869.83.83 0 0 0-.744.468l-1.938-.41a.2.2 0 0 0-.153.028.2.2 0 0 0-.086.134l-.592 2.788c-1.24.038-2.358.41-3.17.992-.21-.2-.496-.324-.81-.324a1.163 1.163 0 0 0-.478 2.224q-.03.17-.029.353c0 1.795 2.091 3.256 4.669 3.256s4.668-1.451 4.668-3.256c0-.114-.01-.238-.029-.353.401-.181.688-.592.688-1.069 0-.65-.525-1.165-1.165-1.165"/>
  </symbol>

  <symbol id="i-email" viewBox="0 0 16 16" fill="currentColor">
    <path d="M0 4a2 2 0 0 1 2-2h12a2 2 0 0 1 2 2v8a2 2 0 0 1-2 2H2a2 2 0 0 1-2-2zm2-1a1 1 0 0 0-1 1v.217l7 4.2 7-4.2V4a1 1 0 0 0-1-1zm13 2.383-4.708 2.825L15 11.105zm-.034 6.876-5.64-3.471L8 9.583l-1.326-.795-5.64 3.47A1 1 0 0 0 2 13h12a1 1 0 0 0 .966-.741M1 11.105l4.708-2.897L1 5.383z"/>
  </symbol>

  <symbol id="i-cart" viewBox="0 0 512 512" fill="currentColor">
    <path d="M456.8,120.78A23.92,23.92,0,0,0,438.24,112H133.89l-6.13-34.78A16,16,0,0,0,112,64H48a16,16,0,0,0,0,32H98.58 l45.66,258.78A16,16,0,0,0,160,368H416a16,16,0,0,0,0-32H173.42l-5.64-32H409.44 A24.07,24.07,0,0,0,433,284.71l28.8-144A24,24,0,0,0,456.8,120.78Z"/>
  </symbol>

  <symbol id="i-search" viewBox="0 0 512 512" fill="currentColor">
    <path d="M344.5,298c15-23.6,23.8-51.6,23.8-81.7c0-84.1-68.1-152.3-152.1-152.3C132.1,64,64,132.2,64,216.3 c0,84.1,68.1,152.3,152.1,152.3c30.5,0,58.9-9,82.7-24.4l6.9-4.8L414.3,448l33.7-34.3L339.5,305.1L344.5,298z M301.4,131.2c22.7,22.7,35.2,52.9,35.2,85c0,32.1-12.5,62.3-35.2,85c-22.7,22.7-52.9,35.2-85,35.2 c-32.1,0-62.3-12.5-85-35.2c-22.7-22.7-35.2-52.9-35.2-85c0-32.1,12.5-62.3,35.2-85c22.7-22.7,52.9-35.2,85-35.2 C248.5,96,278.7,108.5,301.4,131.2z"/>
  </symbol>

  <symbol id="i-user" viewBox="0 0 24 24" fill="none" stroke="currentColor" stroke-width="2" stroke-linecap="round" stroke-linejoin="round">
    <path d="M20 21v-2a4 4 0 0 0-4-4H8a4 4 0 0 0-4 4v2"></path>
    <circle cx="12" cy="7" r="4"></circle>
  </symbol>

  <symbol id="i-arrow-b" viewBox="0 0 24 24" fill="none" stroke="currentColor" stroke-width="2" stroke-linecap="round" stroke-linejoin="round">
    <path d="M19 9l-7 7-7-7"></path>
  </symbol>
  
  <symbol id="i-arrow-r" viewBox="0 0 24 24" fill="none" stroke="currentColor" stroke-width="2" stroke-linecap="round" stroke-linejoin="round">
    <path d="M15 19l-7-7 7-7"></path>
  </symbol>
  
  <symbol id="i-arrow-l" viewBox="0 0 24 24" fill="none" stroke="currentColor" stroke-width="2" stroke-linecap="round" stroke-linejoin="round">
    <path d="M9 5l7 7-7 7"></path>
  </symbol>
  
  <symbol id="i-arrow-t" viewBox="0 0 24 24" fill="none" stroke="currentColor" stroke-width="2" stroke-linecap="round" stroke-linejoin="round">
    <path d="M5 15l7-7 7 7"></path>
  </symbol>

  <symbol id="i-sun" viewBox="0 0 24 24" fill="none" stroke="currentColor" stroke-width="2" stroke-linecap="round" stroke-linejoin="round">
    <circle cx="12" cy="12" r="5"></circle>
    <line x1="12" y1="1" x2="12" y2="3"></line>
    <line x1="12" y1="21" x2="12" y2="23"></line>
    <line x1="4.22" y1="4.22" x2="5.64" y2="5.64"></line>
    <line x1="18.36" y1="18.36" x2="19.78" y2="19.78"></line>
    <line x1="1" y1="12" x2="3" y2="12"></line>
    <line x1="21" y1="12" x2="23" y2="12"></line>
    <line x1="4.22" y1="19.78" x2="5.64" y2="18.36"></line>
    <line x1="18.36" y1="5.64" x2="19.78" y2="4.22"></line>
  </symbol>

  <symbol id="i-moon" viewBox="0 0 24 24" fill="none" stroke="currentColor" stroke-width="2" stroke-linecap="round" stroke-linejoin="round">
    <path d="M21 12.79A9 9 0 1 1 11.21 3 7 7 0 0 0 21 12.79z"></path>
  </symbol>

</svg>
