<svg xmlns="http://www.w3.org/2000/svg" style="display:none">
  
  <symbol id="i-youtube" viewbox="0 0 24 24">
    <path d="M23.498 6.186a3.016 3.016 0 0 0-2.122-2.136C19.505 3.545 12 3.545 12 3.545s-7.505 0-9.377.505A3.017 3.017 0 0 0 .502 6.186C0 8.07 0 12 0 12s0 3.93.502 5.814a3.016 3.016 0 0 0 2.122 2.136c1.871.505 9.376.505 9.376.505s7.505 0 9.377-.505a3.015 3.015 0 0 0 2.122-2.136C24 15.93 24 12 24 12s0-3.93-.502-5.814zM9.545 15.568V8.432L15.818 12l-6.273 3.568z"/>
  </symbol>

  <symbol id="i-pinterest" viewbox="0 0 384 512" stroke="none" fill="currentColor">
    <path d="M204 6.5C101.4 6.5 0 74.9 0 185.6 0 256 39.6 296 63.6 296c9.9 0 15.6-27.6 15.6-35.4 0-9.3-23.7-29.1-23.7-67.8 0-80.4 61.2-137.4 140.4-137.4 68.1 0 118.5 38.7 118.5 109.8 0 53.1-21.3 152.7-90.3 152.7-24.9 0-46.2-18-46.2-43.8 0-37.8 26.4-74.4 26.4-113.4 0-66.2-93.9-54.2-93.9 25.8 0 16.8 2.1 35.4 9.6 50.7-13.8 59.4-42 147.9-42 209.1 0 18.9 2.7 37.5 4.5 56.4 3.4 3.8 1.7 3.4 6.9 1.5 50.4-69 48.6-82.5 71.4-172.8 12.3 23.4 44.1 36 69.3 36 106.2 0 153.9-103.5 153.9-196.8C384 71.3 298.2 6.5 204 6.5z"></path>
  </symbol>

  <symbol id="i-x" viewbox="0 0 24 24">
    <path d="M18.901 1.153h3.68l-8.04 9.19L24 22.846h-7.406l-5.8-7.584-6.638 7.584H.474l8.6-9.83L0 1.154h7.594l5.243 6.932ZM17.61 20.644h2.039L6.486 3.24H4.298Z"/>
  </symbol>

  <symbol id="i-facebook" fill="currentColor" stroke="none" viewbox="0 0 24 24">
    <path d="M18 2h-3a5 5 0 0 0-5 5v3H7v4h3v8h4v-8h3l1-4h-4V7a1 1 0 0 1 1-1h3z"></path>
  </symbol>

  <symbol id="i-instagram" viewbox="0 0 24 24">
    <path d="M7.0301.084c-1.2768.0602-2.1487.264-2.911.5634-.7888.3075-1.4575.72-2.1228 1.3877-.6652.6677-1.075 1.3368-1.3802 2.127-.2954.7638-.4956 1.6365-.552 2.914-.0564 1.2775-.0689 1.6882-.0626 4.947.0062 3.2586.0206 3.6671.0825 4.9473.061 1.2765.264 2.1482.5635 2.9107.308.7889.72 1.4573 1.388 2.1228.6679.6655 1.3365 1.0743 2.1285 1.38.7632.295 1.6361.4961 2.9134.552 1.2773.056 1.6884.069 4.9462.0627 3.2578-.0062 3.668-.0207 4.9478-.0814 1.28-.0607 2.147-.2652 2.9098-.5633.7889-.3086 1.4578-.72 2.1228-1.3881.665-.6682 1.0745-1.3378 1.3795-2.1284.2957-.7632.4966-1.636.552-2.9124.056-1.2809.0692-1.6898.063-4.948-.0063-3.2583-.021-3.6668-.0817-4.9465-.0607-1.2797-.264-2.1487-.5633-2.9117-.3084-.7889-.72-1.4568-1.3876-2.1228C21.2982 1.33 20.628.9208 19.8378.6165 19.074.321 18.2017.1197 16.9244.0645 15.6471.0093 15.236-.005 11.977.0014 8.718.0076 8.31.0215 7.0301.0839m.1402 21.6932c-1.17-.0509-1.8053-.2453-2.2287-.408-.5606-.216-.96-.4771-1.3819-.895-.422-.4178-.6811-.8186-.9-1.378-.1644-.4234-.3624-1.058-.4171-2.228-.0595-1.2645-.072-1.6442-.079-4.848-.007-3.2037.0053-3.583.0607-4.848.05-1.169.2456-1.805.408-2.2282.216-.5613.4762-.96.895-1.3816.4188-.4217.8184-.6814 1.3783-.9003.423-.1651 1.0575-.3614 2.227-.4171 1.2655-.06 1.6447-.072 4.848-.079 3.2033-.007 3.5835.005 4.8495.0608 1.169.0508 1.8053.2445 2.228.408.5608.216.96.4754 1.3816.895.4217.4194.6816.8176.9005 1.3787.1653.4217.3617 1.056.4169 2.2263.0602 1.2655.0739 1.645.0796 4.848.0058 3.203-.0055 3.5834-.061 4.848-.051 1.17-.245 1.8055-.408 2.2294-.216.5604-.4763.96-.8954 1.3814-.419.4215-.8181.6811-1.3783.9-.4224.1649-1.0577.3617-2.2262.4174-1.2656.0595-1.6448.072-4.8493.079-3.2045.007-3.5825-.006-4.848-.0608M16.953 5.5864A1.44 1.44 0 1 0 18.39 4.144a1.44 1.44 0 0 0-1.437 1.4424M5.8385 12.012c.0067 3.4032 2.7706 6.1557 6.173 6.1493 3.4026-.0065 6.157-2.7701 6.1506-6.1733-.0065-3.4032-2.771-6.1565-6.174-6.1498-3.403.0067-6.156 2.771-6.1496 6.1738M8 12.0077a4 4 0 1 1 4.008 3.9921A3.9996 3.9996 0 0 1 8 12.0077"/>
  </symbol>

  <symbol id="i-whatsapp" viewbox="0 0 512 512" stroke="none" fill="currentColor">
    <path d="M380.9 97.1C339 55.1 283.2 32 223.9 32c-122.4 0-222 99.6-222 222 0 39.1 10.2 77.3 29.6 111L0 480l117.7-30.9c32.4 17.7 68.9 27 106.1 27h.1c122.3 0 224.1-99.6 224.1-222 0-59.3-25.2-115-67.1-157zm-157 341.6c-33.2 0-65.7-8.9-94-25.7l-6.7-4-69.8 18.3L72 359.2l-4.4-7c-18.5-29.4-28.2-63.3-28.2-98.2 0-101.7 82.8-184.5 184.6-184.5 49.3 0 95.6 19.2 130.4 54.1 34.8 34.9 56.2 81.2 56.1 130.5 0 101.8-84.9 184.6-186.6 184.6zm101.2-138.2c-5.5-2.8-32.8-16.2-37.9-18-5.1-1.9-8.8-2.8-12.5 2.8-3.7 5.6-14.3 18-17.6 21.8-3.2 3.7-6.5 4.2-12 1.4-32.6-16.3-54-29.1-75.5-66-5.7-9.8 5.7-9.1 16.3-30.3 1.8-3.7.9-6.9-.5-9.7-1.4-2.8-12.5-30.1-17.1-41.2-4.5-10.8-9.1-9.3-12.5-9.5-3.2-.2-6.9-.2-10.6-.2-3.7 0-9.7 1.4-14.8 6.9-5.1 5.6-19.4 19-19.4 46.3 0 27.3 19.9 53.7 22.6 57.4 2.8 3.7 39.1 59.7 94.8 83.8 35.2 15.2 49 16.5 66.6 13.9 10.7-1.6 32.8-13.4 37.4-26.4 4.6-13 4.6-24.1 3.2-26.4-1.3-2.5-5-3.9-10.5-6.6z"></path>
  </symbol>

  <symbol id="i-telegram" stroke="none" fill="currentColor" viewbox="0 0 24 24">
    <path d="M22.05 1.577c-.393-.016-.784.08-1.117.235-.484.186-4.92 1.902-9.41 3.64-2.26.873-4.518 1.746-6.256 2.415-1.737.67-3.045 1.168-3.114 1.192-.46.16-1.082.362-1.61.984-.133.155-.267.354-.335.628s-.038.622.095.895c.265.547.714.773 1.244.976 1.76.564 3.58 1.102 5.087 1.608.556 1.96 1.09 3.927 1.618 5.89.174.394.553.54.944.544l-.002.02s.307.03.606-.042c.3-.07.677-.244 1.02-.565.377-.354 1.4-1.36 1.98-1.928l4.37 3.226.035.02s.484.34 1.192.388c.354.024.82-.044 1.22-.337.403-.294.67-.767.795-1.307.374-1.63 2.853-13.427 3.276-15.38l-.012.046c.296-1.1.187-2.108-.496-2.705-.342-.297-.736-.427-1.13-.444zm-.118 1.874c.027.025.025.025.002.027-.007-.002.08.118-.09.755l-.007.024-.005.022c-.432 1.997-2.936 13.9-3.27 15.356-.046.196-.065.182-.054.17-.1-.015-.285-.094-.3-.1l-7.48-5.525c2.562-2.467 5.182-4.7 7.827-7.08.468-.235.39-.96-.17-.972-.594.14-1.095.567-1.64.84-3.132 1.858-6.332 3.492-9.43 5.406-1.59-.553-3.177-1.012-4.643-1.467 1.272-.51 2.283-.886 3.278-1.27 1.738-.67 3.996-1.54 6.256-2.415 4.522-1.748 9.07-3.51 9.465-3.662l.032-.013.03-.013c.11-.05.173-.055.202-.057 0 0-.01-.033-.002-.026zM10.02 16.016l1.234.912c-.532.52-1.035 1.01-1.398 1.36z"></path>
  </symbol>

  <symbol id="i-reddit" viewbox="0 0 16 16" fill="currentColor">
    <path d="M6.167 8a.83.83 0 0 0-.83.83c0 .459.372.84.83.831a.831.831 0 0 0 0-1.661m1.843 3.647c.315 0 1.403-.038 1.976-.611a.23.23 0 0 0 0-.306.213.213 0 0 0-.306 0c-.353.363-1.126.487-1.67.487-.545 0-1.308-.124-1.671-.487a.213.213 0 0 0-.306 0 .213.213 0 0 0 0 .306c.564.563 1.652.61 1.977.61zm.992-2.807c0 .458.373.83.831.83s.83-.381.83-.83a.831.831 0 0 0-1.66 0z"/>
    <path d="M16 8A8 8 0 1 1 0 8a8 8 0 0 1 16 0m-3.828-1.165c-.315 0-.602.124-.812.325-.801-.573-1.9-.945-3.121-.993l.534-2.501 1.738.372a.83.83 0 1 0 .83-.869.83.83 0 0 0-.744.468l-1.938-.41a.2.2 0 0 0-.153.028.2.2 0 0 0-.086.134l-.592 2.788c-1.24.038-2.358.41-3.17.992-.21-.2-.496-.324-.81-.324a1.163 1.163 0 0 0-.478 2.224q-.03.17-.029.353c0 1.795 2.091 3.256 4.669 3.256s4.668-1.451 4.668-3.256c0-.114-.01-.238-.029-.353.401-.181.688-.592.688-1.069 0-.65-.525-1.165-1.165-1.165"/>
  </symbol>

  <symbol id="i-email" viewbox="0 0 16 16" fill="currentColor">
    <path d="M0 4a2 2 0 0 1 2-2h12a2 2 0 0 1 2 2v8a2 2 0 0 1-2 2H2a2 2 0 0 1-2-2zm2-1a1 1 0 0 0-1 1v.217l7 4.2 7-4.2V4a1 1 0 0 0-1-1zm13 2.383-4.708 2.825L15 11.105zm-.034 6.876-5.64-3.471L8 9.583l-1.326-.795-5.64 3.47A1 1 0 0 0 2 13h12a1 1 0 0 0 .966-.741M1 11.105l4.708-2.897L1 5.383z"/>
  </symbol>

  <symbol id="i-user" viewbox="0 0 24 24">
    <path d="M20 21v-2a4 4 0 0 0-4-4H8a4 4 0 0 0-4 4v2"></path>
    <circle cx="12" cy="7" r="4"></circle>
  </symbol>

  <symbol id="i-arrow-b" viewbox="0 0 24 24">
    <path d="M19 9l-7 7-7-7"></path>
  </symbol>
  
  <symbol id="i-arrow-r" viewbox="0 0 24 24">
    <path d="M15 19l-7-7 7-7"></path>
  </symbol>
  
  <symbol id="i-arrow-l" viewbox="0 0 24 24">
    <path d="M9 5l7 7-7 7"></path>
  </symbol>
  
  <symbol id="i-arrow-t" viewbox="0 0 24 24">
    <path d="M5 15l7-7 7 7"></path>
  </symbol>

  <symbol id="i-cart" viewbox="0 0 512 512" fill="currentColor">
    <circle cx="176" cy="416" r="32"/>
    <circle cx="400" cy="416" r="32"/>
    <path d="M456.8,120.78A23.92,23.92,0,0,0,438.24,112H133.89l-6.13-34.78A16,16,0,0,0,112,64H48a16,16,0,0,0,0,32H98.58 l45.66,258.78A16,16,0,0,0,160,368H416a16,16,0,0,0,0-32H173.42l-5.64-32H409.44 A24.07,24.07,0,0,0,433,284.71l28.8-144A24,24,0,0,0,456.8,120.78Z"/>
  </symbol>

  <symbol id="i-search" viewbox="0 0 512 512">
    <path d="M344.5,298c15-23.6,23.8-51.6,23.8-81.7c0-84.1-68.1-152.3-152.1-152.3C132.1,64,64,132.2,64,216.3 c0,84.1,68.1,152.3,152.1,152.3c30.5,0,58.9-9,82.7-24.4l6.9-4.8L414.3,448l33.7-34.3L339.5,305.1L344.5,298z M301.4,131.2c22.7,22.7,35.2,52.9,35.2,85c0,32.1-12.5,62.3-35.2,85c-22.7,22.7-52.9,35.2-85,35.2 c-32.1,0-62.3-12.5-85-35.2c-22.7-22.7-35.2-52.9-35.2-85c0-32.1,12.5-62.3,35.2-85c22.7-22.7,52.9-35.2,85-35.2 C248.5,96,278.7,108.5,301.4,131.2z"/>
  </symbol>

  <symbol id="i-sun" fill="#ffffff" stroke="#ffffff" viewbox="0 0 24 24">
    <circle cx="12" cy="12" r="5"></circle>
    <line x1="12" y1="1" x2="12" y2="3"></line>
    <line x1="12" y1="21" x2="12" y2="23"></line>
    <line x1="4.22" y1="4.22" x2="5.64" y2="5.64"></line>
    <line x1="18.36" y1="18.36" x2="19.78" y2="19.78"></line>
    <line x1="1" y1="12" x2="3" y2="12"></line>
    <line x1="21" y1="12" x2="23" y2="12"></line>
    <line x1="4.22" y1="19.78" x2="5.64" y2="18.36"></line>
    <line x1="18.36" y1="5.64" x2="19.78" y2="4.22"></line>
  </symbol>

  <symbol id="i-moon" viewbox="0 0 24 24" stroke-width="1.5">
    <path d="M21 12.79A9 9 0 1 1 11.21 3 7 7 0 0 0 21 12.79z"></path>
  </symbol>

</svg>
